<?xml version="1.0" encoding="UTF-8" standalone="no"?>
<svg width="436px" height="436px" viewBox="0 0 436 436" version="1.1" xmlns="http://www.w3.org/2000/svg" xmlns:xlink="http://www.w3.org/1999/xlink" xmlns:sketch="http://www.bohemiancoding.com/sketch/ns">
    <!-- Generator: Sketch 3.2.2 (9983) - http://www.bohemiancoding.com/sketch -->
    <title>DoubleD</title>
    <desc>Created with Sketch.</desc>
    <defs></defs>
    <g id="Page-1" stroke="none" stroke-width="1" fill="none" fill-rule="evenodd" sketch:type="MSPage">
        <g id="Portrait---6-Plus" sketch:type="MSArtboardGroup" transform="translate(-405.000000, -884.000000)">
            <g id="DoubleD" sketch:type="MSLayerGroup" transform="translate(406.000000, 889.000000)">
                <path d="M257.7727,56.3413 L257.7727,373.6583 C327.5353,354.7645 378.8636,290.8896 378.8636,215 C378.8636,139.1104 327.5352,75.2354 257.7727,56.3413 L257.7727,56.3413 Z M177.0455,55.0612 C155.3241,60.2035 135.2719,69.6749 117.8456,82.5168 C77.2529,112.4305 50.9091,160.6321 50.9091,215 C50.9091,292.7075 104.7261,357.8179 177.0447,374.9386 C177.0455,296.8591 177.0455,136.5388 177.0455,55.0612 L177.0455,55.0612 Z M429.3182,215 C429.3182,333.6866 333.3138,429.90116 214.8864,429.90116 C96.4589,429.90116 0.45455,333.6866 0.45455,215 C0.45455,148.301 30.77436,88.699 78.3547,49.282 C92.1171,37.8808 107.3236,28.1683 123.6582,20.4613 C151.3405,7.4002 182.2627,0.0988 214.8864,0.0988 C333.3138,0.0988 429.3182,96.3134 429.3182,215 L429.3182,215 Z" id="Fill-32" fill="#0DACFF" sketch:type="MSShapeGroup"></path>
                <path d="M257.77274,56.3413 L257.77274,373.6582 C327.53525,354.7645 378.86375,290.88955 378.86375,214.99996 C378.86375,139.1104 327.53525,75.23539 257.77274,56.3413 L257.77274,56.3413 Z M177.04547,55.0612 C155.32409,60.20341 135.27188,69.67492 117.84566,82.51672 C77.2529,112.4305 50.90909,160.63204 50.90909,214.99996 C50.90909,292.70749 104.72609,357.8179 177.04475,374.9386 C177.04547,296.85904 177.04547,136.53871 177.04547,55.0612 L177.04547,55.0612 Z M429.31805,214.99996 C429.31805,333.6865 333.31385,429.901 214.88636,429.901 C96.45896,429.901 0.45455,333.6865 0.45455,214.99996 C0.45455,148.30093 30.77438,88.69897 78.35468,49.282 C92.11712,37.88077 107.32364,28.168282 123.65822,20.461273 C151.34054,7.400146 182.26265,0.0988 214.88636,0.0988 C333.31385,0.0988 429.31805,96.31333 429.31805,214.99996 L429.31805,214.99996 Z" id="Stroke-34" stroke="#06567F" stroke-width="2" stroke-linecap="round" stroke-linejoin="round" sketch:type="MSShapeGroup"></path>
                <path d="M258.7136,56.3413 L258.7136,373.6583 C328.0104,354.7645 378.996,290.8896 378.996,215 C378.996,139.1104 328.0103,75.2354 258.7136,56.3413 L258.7136,56.3413 Z M429.1136,215 C429.1136,333.6866 333.7503,429.90116 216.1136,429.90116 L216.1136,0.0988 C333.7503,0.0988 429.1136,96.3134 429.1136,215 L429.1136,215 Z" id="Fill-35" fill="#0DACFF" sketch:type="MSShapeGroup"></path>
                <path d="M258.7136,56.3413 L258.7136,373.6582 C328.01033,354.7645 378.99596,290.88955 378.99596,214.99996 C378.99596,139.1104 328.01024,75.23539 258.7136,56.3413 L258.7136,56.3413 Z M429.1136,214.99996 C429.1136,333.6865 333.75026,429.901 216.1136,429.901 L216.1136,0.0988 C333.75026,0.0988 429.1136,96.31333 429.1136,214.99996 L429.1136,214.99996 Z" id="Stroke-36" stroke="#0A81BF" sketch:type="MSShapeGroup"></path>
                <path d="M171.4,56.3413 L171.4,373.6583 C102.1033,354.7645 51.1176,290.8896 51.1176,215 C51.1176,139.1104 102.1034,75.2354 171.4,56.3413 L171.4,56.3413 Z M1,215 C1,333.6866 96.3633,429.90116 214,429.90116 L214,0.0988 C96.3633,0.0988 1,96.3134 1,215 L1,215 Z" id="Fill-37" fill="#0A81BF" sketch:type="MSShapeGroup"></path>
                <path d="M171.4,56.3413 L171.4,373.6582 C102.10327,354.7645 51.11764,290.88955 51.11764,214.99996 C51.11764,139.1104 102.10336,75.23539 171.4,56.3413 L171.4,56.3413 Z M1,214.99996 C1,333.6865 96.36334,429.901 214,429.901 L214,0.0988 C96.36334,0.0988 1,96.31333 1,214.99996 L1,214.99996 Z" id="Stroke-38" stroke="#0DACFF" sketch:type="MSShapeGroup"></path>
            </g>
        </g>
    </g>
</svg>